# xmcd
#
# Track frame offsets:
#	150
#	16255
#	35567
#	54969
#	73015
#	90006
#	102391
#	119193
#	131785
#	147717
#	164064
#	183003
#	196405
#	212172
#	228675
#	244341
#	257475
#	272767
#	289685
#	306599
#	322192
#
# Disc length: 4521 seconds
#
# Revision: 2
# Processed by: cddbd v1.5.2PL0 Copyright (c) Steve Scherf et al.
# Submitted via: EasyCDDAExtractor 11.5.0.1
#
DISCID=4b11a715
DTITLE=Various Artist - NCT 073
DYEAR=2005
DGENRE=Country
TTITLE0=Kenny Chesney - Keg In The Closet
TTITLE1=Trisha Yearwood - Georgia Rain
TTITLE2=Montgomery Gentry - Something To Be Proud Of
TTITLE3=Sara Evans - A Real Fine Place To Start
TTITLE4=Shooter Jennings - 4th Of July
TTITLE5=Billy Dean - This Is The Life
TTITLE6=Lee Ann Womack - He Oughta Know That By Now
TTITLE7=Steve Azar - Doin' It Right
TTITLE8=Shania Twain - I Ain't No Quitter
TTITLE9=Ryan Shupe And Rubber Band - Dream Big
TTITLE10=Josh Gracin - Stay With Me (Brass Bed)
TTITLE11=Jace Everett - That's The Kind Of Love I'm In
TTITLE12=Cowboy Crush - Nobody Ever Died Of A Broken Heart
TTITLE13=Sugarland - Something More
TTITLE14=Fanny Grace - Sweet Tea And Cadillacs
TTITLE15=Tori Baxley - Half A Man
TTITLE16=Mark Chesnutt - A Hard Secret To Keep
TTITLE17=Rhonda Vincent - I've Forgotten You
TTITLE18=BrittonJack - Fallin'
TTITLE19=Blane Larsen - The Best Man
TTITLE20=Robert Earl Keen - What I Really Mean
EXTD=
EXTT0=
EXTT1=
EXTT2=
EXTT3=
EXTT4=
EXTT5=
EXTT6=
EXTT7=
EXTT8=
EXTT9=
EXTT10=
EXTT11=
EXTT12=
EXTT13=
EXTT14=
EXTT15=
EXTT16=
EXTT17=
EXTT18=
EXTT19=
EXTT20=
PLAYORDER=
